<?xml version="1.0" encoding="UTF-8" standalone="no"?>
<!-- Created with Inkscape (http://www.inkscape.org/) -->

<svg
   xmlns:dc="http://purl.org/dc/elements/1.1/"
   xmlns:cc="http://creativecommons.org/ns#"
   xmlns:rdf="http://www.w3.org/1999/02/22-rdf-syntax-ns#"
   xmlns:svg="http://www.w3.org/2000/svg"
   xmlns="http://www.w3.org/2000/svg"
   xmlns:sodipodi="http://sodipodi.sourceforge.net/DTD/sodipodi-0.dtd"
   xmlns:inkscape="http://www.inkscape.org/namespaces/inkscape"
   width="744.09448819"
   height="1052.3622047"
   id="svg2"
   version="1.1"
   inkscape:version="0.48.5 r10040"
   sodipodi:docname="icon_working.svg">
  <defs
     id="defs4" />
  <sodipodi:namedview
     id="base"
     pagecolor="#a8a8a8"
     bordercolor="#666666"
     borderopacity="1.0"
     inkscape:pageopacity="0"
     inkscape:pageshadow="2"
     inkscape:zoom="0.25"
     inkscape:cx="360.85442"
     inkscape:cy="523.52916"
     inkscape:document-units="px"
     inkscape:current-layer="layer1"
     showgrid="false"
     inkscape:snap-object-midpoints="true"
     inkscape:window-width="1049"
     inkscape:window-height="755"
     inkscape:window-x="155"
     inkscape:window-y="0"
     inkscape:window-maximized="0"
     showguides="true"
     inkscape:guide-bbox="true" />
  <metadata
     id="metadata7">
    <rdf:RDF>
      <cc:Work
         rdf:about="">
        <dc:format>image/svg+xml</dc:format>
        <dc:type
           rdf:resource="http://purl.org/dc/dcmitype/StillImage" />
        <dc:title />
      </cc:Work>
    </rdf:RDF>
  </metadata>
  <g
     inkscape:label="Layer 1"
     inkscape:groupmode="layer"
     id="layer1">
    <path
       sodipodi:type="arc"
       style="fill:#ffffff;fill-opacity:1;stroke:none"
       id="path4433"
       sodipodi:cx="350"
       sodipodi:cy="506.36218"
       sodipodi:rx="232"
       sodipodi:ry="232"
       d="m 582,506.36218 a 232,232 0 1 1 -464,0 232,232 0 1 1 464,0 z"
       transform="translate(3.49393,2.5812474)" />
    <rect
       style="fill:none;fill-opacity:1;stroke:none"
       id="logo"
       width="512"
       height="512"
       x="97.440826"
       y="252.92036"
       inkscape:export-filename="E:\sandbox\per\daily-mail-blocker\graphics\logo_128.png"
       inkscape:export-xdpi="90"
       inkscape:export-ydpi="90"
       inkscape:label="#rect3770" />
    <path
       style="font-size:medium;font-style:normal;font-variant:normal;font-weight:normal;font-stretch:normal;text-indent:0;text-align:start;text-decoration:none;line-height:normal;letter-spacing:normal;word-spacing:normal;text-transform:none;direction:ltr;block-progression:tb;writing-mode:lr-tb;text-anchor:start;baseline-shift:baseline;color:#000000;fill:#800000;fill-opacity:1;stroke:none;stroke-width:10;marker:none;visibility:visible;display:inline;overflow:visible;enable-background:accumulate;font-family:Sans;-inkscape-font-specification:Sans"
       d="m 353.49393,267.81843 c -132.906,0 -241.125,108.219 -241.125,241.125 0,132.906 108.219,241.125 241.125,241.125 132.906,0 241.125,-108.219 241.125,-241.125 0,-132.906 -108.219,-241.125 -241.125,-241.125 z m 0,40 c 111.2884,0 201.125,89.8366 201.125,201.125 0,48.437 -16.97724,92.82856 -45.375,127.5 l -283.25,-283.25 c 34.67056,-28.3948 79.0658,-45.375 127.5,-45.375 z m -155.75,73.75 283.125,283.125 c -34.66032,28.36056 -78.9732,45.375 -127.375,45.375 -111.2884,0 -201.125,-89.8366 -201.125,-201.125 0,-48.4018 17.01444,-92.71468 45.375,-127.375 z"
       id="path2998"
       inkscape:connector-curvature="0" />
    <g
       id="g4470">
      <path
         sodipodi:nodetypes="ccccscsccssc"
         inkscape:connector-curvature="0"
         id="path3081-5"
         d="m 283.02446,356.31626 c -16.44356,12.6476 -70.33508,48.11272 -75.75512,56.23672 l 215.46124,0 0,199.2 c 0,0 -18.97144,-15.58368 -79.951,-15.58368 -72.49796,0 -103.66532,60.9796 -103.66532,60.9796 0,0 44.0408,-5.4204 75.20816,-5.4204 47.42856,0 94.85712,6.77548 94.85712,6.77548 12.3828,-24.16124 40.30132,-46.29608 94.1796,-65.04488 0,0 0,-159.22448 0,-180.90612 0,-21.6816 -7.08352,-56.23672 -48.46828,-56.23672 -21.7358,0 -171.8664,0 -171.8664,0 z"
         style="fill:#000000;fill-opacity:1;stroke:#ffffff;stroke-opacity:1;stroke-width:8;stroke-miterlimit:4;stroke-dasharray:none" />
      <path
         sodipodi:nodetypes="ccccsc"
         inkscape:connector-curvature="0"
         id="path3855-7"
         d="m 239.11426,456.59382 c 29.13468,-9.48572 64.98392,-38.6204 75.20816,-30.4898 l 0,103.11836 c 0,52.00808 -57.67508,91.12028 -92.82448,96.75916 0,0 17.61632,-23.58368 17.61632,-41.87756 0,-12.87344 0,-127.51016 0,-127.51016 z"
         style="fill:#000000;fill-opacity:1;stroke:#ffffff;stroke-opacity:1;stroke-width:8;stroke-miterlimit:4;stroke-dasharray:none" />
    </g>
    <path
       style="fill:#000000;fill-opacity:1;stroke:none;stroke-opacity:1"
       d="m 283.02446,356.31626 c -16.44356,12.6476 -70.33508,48.11272 -75.75512,56.23672 l 215.46124,0 0,199.2 c 0,0 -18.97144,-15.58368 -79.951,-15.58368 -72.49796,0 -103.66532,60.9796 -103.66532,60.9796 0,0 44.0408,-5.4204 75.20816,-5.4204 47.42856,0 94.85712,6.77548 94.85712,6.77548 12.3828,-24.16124 40.30132,-46.29608 94.1796,-65.04488 0,0 0,-159.22448 0,-180.90612 0,-21.6816 -7.08352,-56.23672 -48.46828,-56.23672 -21.7358,0 -171.8664,0 -171.8664,0 z"
       id="path3081"
       inkscape:connector-curvature="0"
       sodipodi:nodetypes="ccccscsccssc" />
    <path
       style="fill:#000000;fill-opacity:1;stroke:none;stroke-opacity:1"
       d="m 239.11426,456.59382 c 29.13468,-9.48572 64.98392,-38.6204 75.20816,-30.4898 l 0,103.11836 c 0,52.00808 -57.67508,91.12028 -92.82448,96.75916 0,0 17.61632,-23.58368 17.61632,-41.87756 0,-12.87344 0,-127.51016 0,-127.51016 z"
       id="path3855"
       inkscape:connector-curvature="0"
       sodipodi:nodetypes="ccccsc" />
    <path
       style="fill:none;stroke:#000000;stroke-width:4px;stroke-linecap:butt;stroke-linejoin:miter;stroke-opacity:1"
       d="m 361.75098,402.38974 0,209.36324"
       id="path3857"
       inkscape:connector-curvature="0" />
    <path
       style="fill:none;stroke:#000000;stroke-width:4px;stroke-linecap:round;stroke-linejoin:miter;stroke-opacity:1"
       d="m 361.65854,471.49994 c 15.55132,20.1106 30.58872,40.00064 63.78224,5.4204"
       id="path3859"
       inkscape:connector-curvature="0"
       sodipodi:nodetypes="cc" />
    <path
       style="fill:none;stroke:#000000;stroke-width:4px;stroke-linecap:round;stroke-linejoin:miter;stroke-opacity:1"
       d="m 361.76622,528.41422 c 19.45504,-19.76556 38.57348,-21.56264 61.64192,-3.38776"
       id="path3861"
       inkscape:connector-curvature="0"
       sodipodi:nodetypes="cc" />
  </g>
</svg>
